ffmpeg version 8.1.1 Copyright (c) 2000-2026 the FFmpeg developers
  built with Apple clang version 17.0.0 (clang-1700.6.4.2)
  configuration: --prefix=/opt/homebrew/Cellar/ffmpeg/8.1.1 --enable-shared --enable-pthreads --enable-version3 --cc=clang --host-cflags= --host-ldflags= --enable-ffplay --enable-gpl --enable-libsvtav1 --enable-libopus --enable-libx264 --enable-libmp3lame --enable-libdav1d --enable-libvmaf --enable-libvpx --enable-libx265 --enable-openssl --enable-videotoolbox --enable-audiotoolbox --enable-neon
  libavutil      60. 26.101 / 60. 26.101
  libavcodec     62. 28.101 / 62. 28.101
  libavformat    62. 12.101 / 62. 12.101
  libavdevice    62.  3.101 / 62.  3.101
  libavfilter    11. 14.101 / 11. 14.101
  libswscale      9.  5.101 /  9.  5.101
  libswresample   6.  3.101 /  6.  3.101
[aist#0:0/pcm_s16le @ 0x152614700] Guessed Channel Layout: mono
Input #0, wav, from 'test-corpus/11-accent-australian-melbourne.wav':
  Metadata:
    encoder         : Lavf62.12.101
  Duration: 00:00:24.29, bitrate: 256 kb/s
  Stream #0:0: Audio: pcm_s16le ([1][0][0][0] / 0x0001), 16000 Hz, mono, s16, 256 kb/s
Stream mapping:
  Stream #0:0 -> #0:0 (pcm_s16le (native) -> pcm_s16le (native))
Press [q] to stop, [?] for help
Output #0, wav, to 'outputs/2026-05-05-141649-11-accent-australian-melbourne-transcribe/whisper-cpp/input-16k.wav':
  Metadata:
    ISFT            : Lavf62.12.101
  Stream #0:0: Audio: pcm_s16le ([1][0][0][0] / 0x0001), 16000 Hz, mono, s16, 256 kb/s
    Metadata:
      encoder         : Lavc62.28.101 pcm_s16le
[out#0/wav @ 0x152614880] video:0KiB audio:759KiB subtitle:0KiB other streams:0KiB global headers:0KiB muxing overhead: 0.010033%
size=     759KiB time=00:00:24.29 bitrate= 256.0kbits/s speed=2.54e+03x elapsed=0:00:00.00    
